<?xml version="1.0" standalone="no"?>
<!DOCTYPE svg PUBLIC "-//W3C//DTD SVG 20010904//EN"
"http://www.w3.org/TR/2001/REC-SVG-20010904/DTD/svg10.dtd">
<svg version="1.0" xmlns="http://www.w3.org/2000/svg"
 width="152.000000pt" height="152.000000pt" viewBox="0 0 152.000000 152.000000"
 preserveAspectRatio="xMidYMid meet">

<g transform="translate(0.000000,152.000000) scale(0.100000,-0.100000)"
fill="#000000" stroke="none">
<path d="M0 760 l0 -760 760 0 760 0 0 760 0 760 -760 0 -760 0 0 -760z m730
630 c35 -35 25 -56 -47 -109 -76 -55 -111 -96 -151 -173 -24 -47 -27 -64 -27
-153 0 -85 3 -106 23 -142 38 -73 26 -113 -36 -113 -31 0 -35 4 -63 64 -102
217 -20 471 198 616 54 35 76 37 103 10z m80 -175 c17 -21 4 -46 -43 -80 -86
-63 -118 -177 -76 -274 24 -58 19 -83 -18 -89 -25 -4 -47 22 -67 81 -38 114
-8 228 85 320 60 59 95 71 119 42z m218 -177 c15 -15 16 -99 1 -131 -15 -33
-44 -48 -105 -54 -77 -8 -104 11 -104 75 1 54 17 89 51 108 30 17 141 18 157
2z m-38 -238 c4 -7 6 -20 4 -29 -2 -9 -22 -158 -45 -331 -22 -173 -45 -319
-50 -325 -13 -13 -168 -20 -180 -8 -10 10 77 673 91 687 25 25 165 30 180 6z"/>
</g>
</svg>
