<?xml version="1.0" encoding="utf-8"?>
<!-- Generator: Adobe Illustrator 27.2.0, SVG Export Plug-In . SVG Version: 6.00 Build 0)  -->
<svg version="1.1" id="Layer_1" xmlns="http://www.w3.org/2000/svg" xmlns:xlink="http://www.w3.org/1999/xlink" x="0px" y="0px"
	 viewBox="0 0 43 44.4" style="enable-background:new 0 0 43 44.4;" xml:space="preserve">
<style type="text/css">
	.st0{fill:#135A9D;}
</style>
<g transform="translate(-2.003 -3.543)">
	<path class="st0" d="M32,19.4c-0.1,0.5-0.2,1-0.3,1.5c-0.1,0.4-0.4,0.7-0.7,1c-0.3,0.3-0.7,0.5-1.1,0.6c-0.6,0.1-1.2,0.2-1.7,0.3
		h-1.6c-0.4,0-0.7-0.2-1-0.4c-0.3-0.2-0.4-0.6-0.4-0.9V20c0-0.5,0.1-0.9,0.3-1.4c0.2-0.4,0.4-0.7,0.7-1c0.3-0.3,0.7-0.5,1.1-0.6
		c0.5-0.2,1.1-0.3,1.7-0.3h1.7c0.4,0,0.8,0.2,1,0.5c0.3,0.2,0.4,0.6,0.4,0.9C32.1,18.5,32,19,32,19.4 M27.6,46
		c0,0.2-0.1,0.3-0.2,0.4c-0.1,0.2-0.3,0.3-0.5,0.3c-0.3,0.1-0.7,0.2-1,0.2C25.5,47,25,47,24.4,47.1h-1.5c-0.3,0-0.6,0-0.9-0.1
		c-0.2,0-0.3-0.1-0.4-0.3c-0.1-0.1-0.1-0.3-0.1-0.4l2.8-21c0-0.2,0.1-0.3,0.2-0.4c0.1-0.2,0.3-0.3,0.5-0.3c0.3-0.1,0.6-0.2,1-0.3
		c0.5-0.1,1-0.1,1.5-0.2H29c0.3,0,0.6,0,0.9,0.1c0.2,0,0.3,0.1,0.5,0.3c0.1,0.1,0.1,0.3,0.1,0.4L27.6,46z"/>
	<path class="st0" d="M23.6,10.7c-0.2,0-0.4,0-0.6,0.1c-2.5,1.4-4.3,3.7-5.1,6.4c-0.7,2.6-0.3,5.4,1.1,7.7c0.2,0.3,0.6,0.6,1,0.6
		c0.2,0,0.4,0,0.6-0.2c0.5-0.3,0.7-1,0.4-1.5c0,0,0,0,0-0.1c-1.1-1.8-1.4-3.9-0.8-5.9c0.6-2.1,2-3.9,3.9-4.9c0.6-0.3,0.8-1,0.5-1.6
		c0,0,0,0,0,0C24.4,10.9,24,10.7,23.6,10.7"/>
	<path class="st0" d="M16,25.3c-1.6-2.6-2-5.8-1.2-8.7c1-3.6,3.5-6.6,6.8-8.4c0.8-0.4,1.2-1.4,0.8-2.3C22,5.1,21,4.7,20.2,5.1
		c-0.1,0-0.1,0.1-0.2,0.1c-4.1,2.3-7.2,6.1-8.5,10.6c-1,3.8-0.5,7.8,1.6,11.2c0.5,0.8,1.5,1,2.3,0.6C16.1,27.2,16.4,26.2,16,25.3
		C16,25.4,16,25.3,16,25.3"/>
</g>
</svg>
