<!--?xml version="1.0" encoding="UTF-8"?-->
<svg id="Layer_1" data-name="Layer 1" xmlns="http://www.w3.org/2000/svg" viewBox="0 0 114.32 228.45" width="114.31999969482422" height="228.4499969482422">
  <defs>
    <style>
      .cls-1 {
        fill: #145b9e;
      }
/***************************************************
 * Generated by SVG Artista on 6/22/2023, 8:53:31 PM
 * MIT license (https://opensource.org/licenses/MIT)
 * W. https://svgartista.net
 **************************************************/

@-webkit-keyframes animate-svg-fill-1 {
  0% {
    fill: transparent;
  }

  100% {
    fill: rgb(20, 91, 158);
  }
}

@keyframes animate-svg-fill-1 {
  0% {
    fill: transparent;
  }

  100% {
    fill: rgb(20, 91, 158);
  }
}

.svg-elem-1 {
  -webkit-animation: animate-svg-fill-1 0.7s cubic-bezier(0.47, 0, 0.745, 0.715) 0.8s none;
          animation: animate-svg-fill-1 0.7s cubic-bezier(0.47, 0, 0.745, 0.715) 0.8s none;
}

@-webkit-keyframes animate-svg-fill-2 {
  0% {
    fill: transparent;
  }

  100% {
    fill: rgb(20, 91, 158);
  }
}

@keyframes animate-svg-fill-2 {
  0% {
    fill: transparent;
  }

  100% {
    fill: rgb(20, 91, 158);
  }
}

.svg-elem-2 {
  -webkit-animation: animate-svg-fill-2 0.7s cubic-bezier(0.47, 0, 0.745, 0.715) 1.1s infinite;
          animation: animate-svg-fill-2 0.7s cubic-bezier(0.47, 0, 0.745, 0.715) 1.1s infinite;
}

@-webkit-keyframes animate-svg-fill-3 {
  0% {
    fill: transparent;
  }

  100% {
    fill: rgb(20, 91, 158);
  }
}

@keyframes animate-svg-fill-3 {
  0% {
    fill: transparent;
  }

  100% {
    fill: rgb(20, 91, 158);
  }
}

.svg-elem-3 {
  -webkit-animation: animate-svg-fill-3 0.7s cubic-bezier(0.47, 0, 0.745, 0.715) 1.4s infinite;
          animation: animate-svg-fill-3 0.7s cubic-bezier(0.47, 0, 0.745, 0.715) 1.4s infinite;
}

    </style>
  </defs>
  <path class="cls-1 svg-elem-1" d="m113.78,78.34c-.54,2.71-1.08,5.42-1.63,8.13-.54,2.17-2.17,3.79-3.79,5.42-1.63,1.63-3.79,2.71-5.96,3.25-3.25.54-6.5,1.08-9.21,1.63h-8.67c-2.17,0-3.79-1.08-5.42-2.17-1.63-1.08-2.17-3.25-2.17-4.88v-8.13c0-2.71.54-4.88,1.63-7.59,1.08-2.17,2.17-3.79,3.79-5.42,1.63-1.63,3.79-2.71,5.96-3.25,2.71-1.08,5.96-1.63,9.21-1.63h9.21c2.17,0,4.34,1.08,5.42,2.71,1.63,1.08,2.17,3.25,2.17,4.88,0,2.17-.54,4.88-.54,7.04m-23.84,144.15c0,1.08-.54,1.63-1.08,2.17-.54,1.08-1.63,1.63-2.71,1.63-1.63.54-3.79,1.08-5.42,1.08-2.17.54-4.88.54-8.13,1.08h-8.13c-1.63,0-3.25,0-4.88-.54-1.08,0-1.63-.54-2.17-1.63-.54-.54-.54-1.63-.54-2.17l15.17-113.8c0-1.08.54-1.63,1.08-2.17.54-1.08,1.63-1.63,2.71-1.63,1.63-.54,3.25-1.08,5.42-1.63,2.71-.54,5.42-.54,8.13-1.08h8.13c1.63,0,3.25,0,4.88.54,1.08,0,1.63.54,2.71,1.63.54.54.54,1.63.54,2.17l-15.72,114.34Z"></path>
  <path class="cls-1 svg-elem-2" d="m68.26,31.2c-1.08,0-2.17,0-3.25.54-13.55,7.59-23.3,20.05-27.64,34.68-3.79,14.09-1.63,29.26,5.96,41.73,1.08,1.63,3.25,3.25,5.42,3.25,1.08,0,2.17,0,3.25-1.08,2.71-1.63,3.79-5.42,2.17-8.13v-.54c-5.96-9.75-7.59-21.13-4.34-31.97,3.25-11.38,10.84-21.13,21.13-26.55,3.25-1.63,4.34-5.42,2.71-8.67h0c-1.08-2.17-3.25-3.25-5.42-3.25"></path>
  <path class="cls-1 svg-elem-3" d="m27.08,110.32c-8.67-14.09-10.84-31.43-6.5-47.15,5.42-19.51,18.97-35.77,36.85-45.52,4.34-2.17,6.5-7.59,4.34-12.46-2.17-4.34-7.59-6.5-11.92-4.34-.54,0-.54.54-1.08.54C26.53,13.86,9.73,34.45,2.69,58.83-2.73,79.43-.02,101.1,11.36,119.53c2.71,4.34,8.13,5.42,12.46,3.25,3.79-2.17,5.42-7.59,3.25-12.46,0,.54,0,0,0,0"></path>
</svg>